<?xml version="1.0" standalone="no"?>
<!DOCTYPE svg PUBLIC "-//W3C//DTD SVG 20010904//EN"
 "http://www.w3.org/TR/2001/REC-SVG-20010904/DTD/svg10.dtd">
<svg version="1.0" xmlns="http://www.w3.org/2000/svg"
 width="1280.000000pt" height="720.000000pt" viewBox="0 0 1280.000000 720.000000"
 preserveAspectRatio="xMidYMid meet">
<metadata>
Created by potrace 1.16, written by Peter Selinger 2001-2019
</metadata>
<g transform="translate(0.000000,720.000000) scale(0.100000,-0.100000)"
fill="#000000" stroke="none">
<path d="M0 3600 l0 -3600 2470 0 2470 0 0 22 c0 22 -15 47 -138 236 -57 88
-82 117 -108 128 -34 14 -45 38 -57 121 -3 17 -8 36 -11 42 -11 17 24 61 48
61 13 0 31 -12 44 -29 18 -25 19 -31 7 -47 -13 -17 -16 -17 -25 -4 -8 11 -10
5 -6 -25 3 -22 5 -48 6 -57 0 -10 9 -27 20 -38 11 -11 35 -44 52 -73 29 -48
116 -185 160 -249 10 -15 18 -31 18 -35 1 -4 9 -18 19 -30 24 -29 68 -30 91
-3 13 15 20 17 25 9 13 -20 23 10 18 50 -5 38 14 67 39 59 15 -5 12 -107 -4
-125 -8 -10 766 -13 3826 -13 l3836 0 0 3600 0 3600 -6400 0 -6400 0 0 -3600z
m6020 3352 c0 -16 59 -32 97 -26 35 5 41 3 45 -14 3 -12 0 -32 -7 -46 -12 -23
-12 -25 17 -31 16 -4 32 -13 35 -21 3 -8 14 -14 24 -14 10 0 19 -7 19 -15 0
-8 9 -19 19 -25 24 -12 44 -13 37 -1 -4 5 0 12 6 14 8 4 5 8 -9 12 -13 4 -20
12 -16 21 6 16 49 19 58 4 3 -6 17 -7 30 -4 28 7 40 -9 20 -26 -8 -7 -15 -23
-15 -35 0 -14 -7 -25 -17 -27 -12 -2 -3 -10 27 -25 90 -42 123 -47 230 -35
109 11 134 6 179 -40 12 -13 44 -47 72 -75 28 -29 58 -53 68 -53 9 0 28 -13
43 -30 20 -23 27 -26 32 -15 9 24 23 17 29 -12 6 -34 -3 -51 -15 -29 -14 25
-25 19 -33 -20 -7 -40 1 -57 16 -34 7 11 9 0 7 -36 -1 -49 14 -103 37 -132 36
-46 78 -82 96 -82 24 0 37 -29 18 -41 -20 -12 -89 -11 -89 1 0 7 -7 7 -21 0
-16 -9 -24 -8 -39 5 -13 11 -41 18 -82 21 -35 1 -106 7 -158 12 -52 4 -117 7
-145 6 -27 0 -57 2 -65 6 -9 5 -36 -2 -66 -15 -47 -21 -52 -26 -59 -64 -4 -26
-13 -42 -25 -46 -10 -3 -21 -19 -25 -34 -3 -16 -17 -39 -31 -51 -13 -13 -24
-33 -24 -44 0 -12 -4 -27 -9 -35 -6 -9 -4 -22 6 -37 8 -13 13 -31 12 -41 -3
-24 11 -103 23 -125 5 -11 5 -18 -1 -18 -12 0 -23 -61 -22 -130 0 -41 8 -73
30 -120 17 -36 31 -72 31 -82 0 -16 -47 -50 -90 -63 -12 -4 -41 -26 -64 -50
l-41 -43 -85 5 c-65 4 -90 9 -106 24 -43 40 -64 17 -104 -113 -24 -79 -25
-106 -4 -133 8 -11 19 -37 25 -59 l10 -39 56 6 c102 11 139 -19 158 -125 6
-41 20 -50 28 -19 7 28 66 39 84 15 11 -15 17 -16 33 -6 11 6 27 12 35 12 10
0 15 10 16 28 l1 27 9 -25 c5 -14 19 -30 32 -35 12 -6 26 -20 32 -32 6 -15 18
-23 35 -23 46 0 70 -12 76 -36 4 -17 13 -24 30 -24 13 0 24 -4 24 -10 0 -15
-77 -12 -140 5 -49 13 -63 13 -130 -2 -43 -9 -109 -16 -155 -15 -82 2 -116 -6
-190 -45 -41 -22 -130 -102 -137 -124 -2 -7 -22 -13 -44 -14 -92 -5 -86 -2
-78 -40 5 -26 1 -41 -16 -65 -12 -16 -25 -28 -30 -25 -4 3 -10 -2 -13 -10 -4
-8 2 -16 14 -20 12 -4 18 -12 15 -21 -3 -8 -1 -14 4 -14 6 0 10 4 10 9 0 14
31 22 45 11 8 -7 23 -1 51 20 21 16 48 30 59 30 12 0 25 4 31 10 5 5 22 11 36
12 15 1 26 6 25 11 -3 16 86 56 125 57 20 0 47 4 61 9 13 5 81 12 151 15 140
6 206 -5 206 -35 0 -9 7 -20 16 -23 9 -4 14 -9 11 -12 -3 -3 -14 -1 -26 5 -16
9 -22 8 -29 -5 -10 -18 -72 -31 -72 -14 0 12 -47 3 -67 -12 -7 -5 -21 -7 -33
-3 -12 4 -27 1 -35 -5 -9 -7 -15 -8 -15 -3 0 7 -15 7 -42 2 -24 -5 -72 -14
-108 -20 -75 -13 -100 -24 -100 -44 0 -20 -17 -19 -29 3 -8 13 -10 8 -9 -25 1
-35 5 -43 20 -43 10 0 18 -7 18 -15 0 -9 9 -15 24 -15 14 0 28 -4 31 -10 3 -5
19 -10 35 -10 31 0 48 -15 28 -24 -7 -3 3 -5 22 -6 19 0 59 -3 88 -6 42 -5 52
-9 52 -25 0 -28 23 -23 41 9 8 15 29 34 45 42 16 8 32 19 35 24 4 4 15 3 26
-3 11 -5 36 -8 55 -4 30 4 35 9 31 27 -3 12 -1 17 4 10 22 -29 77 -38 68 -11
-7 17 107 107 136 107 5 0 23 10 38 21 17 13 34 18 42 14 7 -5 10 -4 6 2 -7
10 20 28 36 25 4 -1 7 4 7 11 0 9 11 12 34 9 18 -2 37 1 40 7 4 6 16 11 27 11
13 0 18 -4 13 -12 -5 -8 0 -9 14 -6 16 5 22 1 23 -10 1 -36 31 67 39 137 8 74
-6 141 -30 141 -6 0 -10 7 -10 15 0 9 -9 15 -21 15 -14 0 -19 5 -16 15 4 8 2
17 -3 20 -5 3 -10 -5 -12 -17 -2 -14 -10 -23 -21 -23 -10 0 -22 -6 -26 -14
-14 -22 -51 -4 -51 26 0 24 -3 25 -35 20 -32 -5 -35 -4 -35 19 0 19 -5 24 -24
24 -13 0 -32 3 -41 7 -15 5 -16 1 -10 -25 4 -21 3 -32 -4 -32 -6 0 -11 9 -11
20 0 12 -10 31 -22 43 -21 21 -23 33 -24 132 -1 61 -2 124 -3 141 0 17 -7 37
-15 43 -8 7 -25 33 -36 57 -13 27 -39 56 -64 73 -40 28 -75 75 -64 86 3 3 20
-8 38 -25 41 -38 52 -38 48 3 -2 19 -8 31 -15 29 -7 -1 -13 6 -13 17 0 10 -13
35 -30 56 -26 32 -30 46 -30 97 0 47 -3 60 -17 64 -37 11 -47 21 -50 51 -2 18
2 37 12 46 8 9 15 22 15 30 0 8 7 18 16 21 8 3 13 10 9 16 -3 5 -1 17 4 27 5
10 16 33 23 51 7 17 16 32 20 32 4 0 17 11 30 23 24 25 94 54 163 69 86 19
201 38 231 38 42 0 140 -44 153 -69 25 -45 15 -48 -99 -26 l-35 7 43 -27 c24
-15 42 -28 40 -30 -2 -1 -43 6 -93 17 -50 10 -110 17 -135 14 -57 -6 -137 -41
-150 -66 -6 -11 -17 -20 -25 -20 -7 0 -20 -6 -27 -13 -7 -7 -29 -18 -48 -24
-22 -7 -27 -11 -15 -12 29 -1 86 21 113 44 13 11 33 27 43 37 29 24 114 41
166 34 46 -6 114 -33 147 -58 18 -14 17 -15 -12 -10 -24 3 -32 0 -32 -11 0
-12 -22 -16 -112 -20 -90 -5 -130 -12 -198 -36 -64 -23 -85 -35 -85 -48 0 -26
91 -36 157 -16 45 13 51 13 61 -1 7 -9 38 -27 70 -40 41 -16 53 -25 42 -30 -9
-3 -20 -4 -25 -1 -5 3 -31 7 -60 10 -38 4 -51 2 -48 -8 3 -6 15 -13 29 -15 13
-2 33 -7 44 -12 11 -4 32 -11 48 -14 38 -9 34 -22 -9 -30 -28 -6 -33 -10 -24
-21 6 -7 25 -15 43 -18 32 -6 99 -20 150 -33 15 -3 27 -10 27 -15 0 -5 11 -7
24 -3 16 4 25 1 29 -10 5 -12 20 -16 57 -16 56 0 68 16 18 23 l-33 4 35 1 c19
1 51 6 69 12 21 6 39 6 46 0 6 -5 31 -10 57 -12 29 -2 44 -7 41 -15 -2 -6 5
-14 17 -18 20 -6 20 -8 6 -24 -9 -10 -16 -25 -16 -34 0 -11 -8 -17 -24 -17
-20 0 -22 -4 -18 -26 3 -18 -1 -30 -17 -41 -12 -8 -20 -21 -17 -29 3 -8 1 -14
-4 -14 -5 0 -10 7 -12 17 -4 23 -25 -20 -33 -69 -4 -29 -11 -38 -25 -38 -11 0
-20 6 -21 13 0 6 -6 1 -12 -13 -6 -14 -20 -33 -30 -42 -10 -9 -23 -32 -28 -52
-9 -31 -14 -36 -40 -36 -20 0 -29 -4 -26 -12 2 -8 16 -12 32 -10 23 3 27 1 21
-13 -3 -9 -6 -22 -6 -29 0 -7 -7 -13 -15 -13 -8 0 -15 7 -15 16 0 11 -3 12
-11 4 -8 -8 -7 -21 2 -48 12 -32 12 -38 -3 -49 -14 -10 -13 -14 8 -41 22 -27
24 -52 3 -39 -5 3 -20 -1 -33 -10 -23 -14 -24 -14 -36 14 -9 22 -19 30 -38 30
l-26 0 22 -16 c12 -8 22 -26 22 -40 0 -21 5 -24 34 -24 19 0 36 3 39 8 2 4 3
2 1 -4 -1 -6 1 -26 5 -44 6 -31 8 -32 23 -17 21 22 25 21 31 -3 3 -11 1 -20
-4 -20 -5 0 -9 -5 -9 -10 0 -6 6 -9 13 -8 23 5 10 -98 -21 -163 -16 -32 -25
-59 -20 -59 4 0 8 -9 8 -20 0 -11 -4 -20 -9 -20 -5 0 -13 -9 -16 -21 -4 -11
-9 -18 -12 -15 -3 3 -14 -6 -25 -19 -11 -14 -23 -23 -27 -21 -4 3 -8 -5 -8
-16 -3 -35 -33 -58 -76 -58 -37 0 -39 -2 -35 -25 3 -14 1 -25 -3 -25 -5 0 -9
9 -9 19 0 12 -9 21 -26 25 -15 4 -28 6 -29 4 -2 -2 5 -21 16 -43 11 -22 15
-41 10 -43 -5 -2 -7 -10 -4 -18 8 -23 -12 -16 -48 15 -18 17 -35 28 -37 26 -2
-2 4 -20 13 -39 l18 -37 -29 -24 c-24 -21 -26 -25 -11 -31 23 -8 11 -24 -19
-24 -15 0 -24 -6 -24 -15 0 -8 -5 -15 -11 -15 -8 0 -8 -4 0 -14 10 -12 8 -19
-8 -35 -12 -12 -23 -21 -26 -21 -3 0 -14 -9 -25 -20 -11 -11 -31 -20 -44 -20
-13 0 -27 -6 -29 -12 -3 -7 -6 -1 -6 15 -1 18 4 27 15 27 8 0 13 4 10 9 -7 10
-45 3 -64 -12 -8 -6 -11 -20 -7 -34 8 -34 -11 -28 -24 7 -10 30 -36 41 -44 18
-3 -12 -28 -15 -179 -21 -21 0 -38 -5 -38 -10 0 -5 -6 -7 -12 -4 -16 5 -68
-20 -68 -33 0 -5 -11 -12 -25 -16 -14 -3 -25 -10 -25 -15 0 -5 -7 -9 -15 -9
-8 0 -15 4 -15 10 0 5 -18 9 -40 8 -29 -1 -46 -9 -66 -29 -15 -16 -32 -26 -38
-22 -6 3 -5 0 2 -8 14 -16 16 -39 2 -39 -5 0 -10 7 -10 15 0 8 -9 15 -20 15
-10 0 -23 7 -28 16 -8 15 -11 14 -23 -3 -16 -22 -53 -27 -45 -6 4 9 -4 13 -25
13 -33 0 -58 18 -51 38 2 7 -5 12 -17 12 -12 0 -21 -5 -21 -12 0 -6 -11 -1
-25 12 -15 14 -32 21 -44 17 -16 -4 -21 2 -26 36 -6 31 -4 42 9 49 23 13 9 30
-22 26 -22 -2 -28 2 -30 20 -2 12 1 22 7 22 6 0 11 10 10 23 l0 22 -9 -22 c-5
-13 -14 -23 -19 -23 -14 0 -23 18 -11 22 5 1 12 18 16 36 6 30 5 32 -20 32
-20 0 -26 5 -27 23 0 12 -3 17 -5 10 -7 -16 -34 -5 -34 14 0 8 5 11 10 8 6 -4
10 5 10 19 0 27 -9 33 -26 16 -6 -6 -14 -3 -22 10 -11 18 -10 20 10 20 21 1
20 2 -7 15 -40 19 -65 40 -65 54 0 8 8 10 23 6 12 -4 17 -3 11 2 -7 4 -13 17
-15 28 -3 13 -14 21 -32 23 -23 3 -27 0 -27 -22 0 -40 -18 -30 -22 12 -2 24
-8 37 -18 38 -31 2 -35 5 -20 14 13 9 12 12 -4 21 -11 7 -14 14 -8 18 7 4 1
31 -15 76 -30 84 -39 140 -24 149 14 9 14 59 0 73 -7 7 -8 17 -2 29 10 19 2
119 -13 178 -5 23 -4 27 6 21 8 -5 2 13 -13 40 -15 26 -27 56 -27 65 0 10 -6
31 -14 47 -43 83 -58 129 -53 160 7 41 -8 52 -22 16 l-11 -28 6 30 c3 17 7 51
7 77 2 52 12 70 22 39 5 -16 15 -21 39 -21 l33 0 -5 48 c-4 47 -3 49 27 62 17
7 31 19 31 27 0 7 7 16 15 19 8 4 15 14 16 23 1 9 4 5 8 -9 8 -27 -3 -58 -28
-77 -10 -8 -11 -12 -4 -13 6 0 15 5 18 10 4 7 12 7 25 0 28 -15 50 -12 51 8 0
14 2 13 9 -4 11 -29 41 -39 56 -20 7 10 35 18 73 22 33 4 61 11 61 15 0 5 13
9 29 9 16 0 31 6 35 15 3 8 12 15 20 15 9 0 30 9 48 21 l33 21 -43 -6 c-24 -4
-48 -4 -53 0 -14 9 9 34 32 34 10 0 45 9 76 19 32 11 78 22 103 25 46 7 110
38 110 55 0 11 -54 31 -83 31 -15 0 -18 4 -13 23 14 46 12 52 -21 55 -19 2
-33 -1 -33 -7 0 -6 9 -11 20 -11 14 0 20 -7 20 -21 0 -20 -4 -21 -37 -14 -77
15 -136 9 -218 -24 -44 -18 -88 -40 -97 -48 -10 -9 -35 -17 -55 -19 -21 -2
-40 -3 -43 -4 -3 0 2 -5 10 -10 13 -8 12 -10 -4 -10 -12 0 -16 5 -12 16 3 9 6
19 6 23 0 5 19 29 43 54 42 46 122 97 151 97 9 0 16 5 16 11 0 6 -6 9 -12 6
-7 -2 -38 -13 -68 -23 -30 -11 -57 -22 -60 -26 -12 -15 -110 -76 -110 -67 0 5
4 9 9 9 15 0 23 32 11 44 -8 8 -9 6 -4 -7 5 -13 2 -16 -10 -11 -24 9 -10 73
21 97 12 10 23 24 23 32 0 21 54 39 170 57 45 7 66 6 68 -1 2 -6 17 -11 32
-11 16 0 31 -4 34 -9 3 -4 17 -6 31 -3 21 4 25 0 26 -19 0 -13 3 -18 6 -11 8
20 63 15 63 -5 0 -14 2 -15 9 -4 16 26 91 -17 91 -52 0 -25 -12 -27 -41 -6
-15 10 -31 19 -36 18 -9 -2 -46 12 -53 20 -8 10 -180 0 -180 -10 0 -5 29 -9
64 -9 36 0 68 -4 71 -10 9 -14 42 -12 48 3 3 7 6 6 6 -5 1 -11 10 -17 29 -17
55 -2 62 -5 62 -23 0 -10 -6 -18 -14 -18 -10 0 -12 -7 -8 -22 3 -12 7 -17 10
-10 2 6 10 12 18 12 8 0 14 9 14 20 0 11 5 20 10 20 6 0 10 -4 10 -10 0 -5 6
-10 14 -10 9 0 12 7 9 20 -4 16 -2 19 13 13 11 -3 22 -11 25 -16 4 -5 10 1 14
14 4 13 14 31 22 40 16 19 24 115 14 174 -6 34 -10 40 -29 37 -14 -2 -22 2
-22 11 0 8 -11 18 -25 21 -34 9 -64 40 -71 75 -4 16 -19 44 -34 62 -27 33 -27
33 -111 31 -81 -2 -174 -27 -207 -54 -7 -6 -25 -12 -40 -14 -15 -1 -40 -7 -57
-13 -16 -6 -43 -13 -59 -16 -17 -4 -30 -14 -33 -26 -3 -12 -11 -18 -19 -15 -8
3 -14 1 -14 -4 0 -5 -18 -27 -39 -48 -22 -22 -43 -51 -47 -66 -3 -14 -12 -26
-20 -26 -8 0 -14 -6 -14 -12 0 -10 -3 -9 -9 1 -7 11 -11 9 -20 -8 -7 -11 -16
-21 -21 -21 -15 0 -2 75 27 155 41 115 46 136 34 148 -7 7 -18 3 -35 -16 -18
-19 -26 -22 -29 -13 -6 15 0 49 13 81 11 28 40 116 47 143 3 12 12 22 19 22 8
0 14 4 14 9 0 5 34 44 75 86 41 43 91 104 110 135 43 70 85 89 85 38 0 -11 5
-16 10 -13 6 4 8 10 5 15 -6 9 9 15 67 25 21 3 59 23 87 45 39 31 53 49 61 82
28 112 34 127 46 117 8 -6 17 -2 28 16 20 31 36 33 28 3 -5 -23 -5 -23 17 -4
22 20 22 20 28 -2 7 -30 23 -17 23 19 0 25 4 29 28 29 24 1 25 2 10 14 -29 22
-21 37 17 34 35 -2 61 11 37 19 -6 3 -9 9 -6 15 4 7 0 7 -12 0 -26 -14 -68 13
-44 28 18 12 70 13 70 2z m-110 -4962 c0 -13 53 -13 66 0 14 14 91 1 111 -18
13 -13 13 -17 2 -20 -17 -6 -53 -42 -41 -42 4 0 13 5 19 11 13 13 43 5 43 -10
0 -5 -9 -11 -20 -14 -11 -3 -20 -10 -20 -16 0 -6 7 -8 15 -5 11 4 15 0 15 -16
0 -19 -4 -21 -30 -15 -20 5 -30 3 -30 -6 0 -8 13 -10 44 -6 39 6 44 4 55 -20
14 -31 9 -38 -17 -24 -43 23 -43 9 1 -36 26 -26 49 -44 53 -40 4 4 -1 16 -10
26 -12 13 -16 27 -11 42 7 22 8 21 20 -7 6 -16 19 -35 28 -43 26 -21 21 -29
-23 -36 -25 -4 -40 -12 -40 -21 0 -8 5 -14 11 -14 6 0 9 -7 5 -15 -4 -11 1
-15 19 -15 20 0 25 -5 25 -25 0 -25 0 -25 -36 -10 -36 15 -54 13 -54 -6 0 -5
10 -9 23 -9 13 0 32 -10 43 -23 32 -37 37 -47 20 -47 -9 0 -16 7 -16 15 0 10
-10 15 -30 15 -19 0 -30 5 -30 14 0 17 -25 26 -62 22 -36 -4 -65 28 -46 52 7
9 13 19 14 20 2 2 16 -4 32 -13 33 -20 82 -14 82 10 0 17 -14 19 -39 5 -14 -7
-24 -4 -41 15 -13 14 -32 25 -42 25 -10 0 -28 11 -40 25 -12 14 -28 25 -35 25
-18 0 -16 18 3 22 13 2 12 7 -7 27 -22 23 -22 24 -4 55 10 17 23 34 29 38 19
13 -1 19 -28 9 -17 -7 -26 -18 -27 -33 0 -16 -5 -11 -15 19 -12 33 -21 43 -45
48 -42 9 -30 31 15 28 34 -2 47 9 26 22 -15 9 -12 25 5 25 8 0 15 -4 15 -10z
m-310 -226 c0 -14 6 -24 14 -24 8 0 17 -11 20 -25 4 -16 13 -25 26 -25 10 0
22 -4 25 -10 3 -6 -1 -7 -9 -4 -22 8 -20 -3 4 -28 11 -12 20 -25 20 -30 0 -13
-18 -9 -23 5 -3 9 -8 9 -16 1 -9 -8 -9 -17 0 -37 7 -15 15 -25 18 -22 4 2 6
-21 4 -50 -2 -48 2 -59 35 -104 41 -56 52 -62 52 -29 0 21 1 21 20 3 13 -12
17 -21 10 -25 -12 -7 17 -30 55 -44 l20 -7 -20 -16 c-20 -15 -20 -15 3 -30 12
-9 22 -21 22 -29 0 -8 13 -13 41 -12 31 0 49 -7 79 -31 21 -17 48 -31 59 -31
14 0 21 -6 21 -20 0 -13 7 -20 20 -20 11 0 20 5 20 10 0 6 -5 10 -10 10 -12 0
-33 50 -25 59 3 3 10 0 14 -7 9 -16 59 -21 63 -7 2 6 -9 11 -24 13 -32 4 -38
34 -13 66 12 16 22 18 62 12 26 -3 49 -10 52 -15 4 -4 17 -12 30 -16 15 -5 20
-10 13 -17 -6 -6 -16 -6 -28 0 -25 12 -86 13 -79 1 4 -5 15 -9 25 -9 10 0 22
-4 25 -10 3 -5 28 -10 56 -10 41 0 49 -3 49 -19 0 -15 12 -22 51 -31 47 -11
53 -11 79 9 16 11 36 21 44 21 8 0 18 5 21 11 4 5 12 8 18 6 7 -2 21 -1 33 4
11 4 27 3 35 -2 10 -6 5 -9 -18 -9 -23 0 -33 -5 -33 -15 0 -17 26 -20 35 -5 5
8 12 7 23 -2 12 -10 16 -10 19 0 6 16 40 16 46 0 3 -7 6 -3 6 10 1 12 6 22 11
22 6 0 10 9 10 20 0 11 4 20 9 20 5 0 16 3 25 6 11 4 16 1 16 -11 0 -9 -9 -19
-19 -22 -16 -4 -17 -8 -8 -18 15 -16 47 2 47 27 0 9 5 20 10 23 6 3 10 -1 10
-9 0 -9 9 -16 20 -16 11 0 20 -4 20 -10 0 -5 11 -10 24 -10 14 0 28 -4 31 -10
3 -5 20 -10 36 -10 19 0 28 -4 24 -11 -4 -6 -13 -8 -21 -5 -8 3 -14 -1 -14 -9
0 -8 9 -15 19 -15 11 0 23 -4 26 -10 3 -5 1 -10 -4 -10 -6 0 -11 -7 -11 -16 0
-13 3 -14 14 -5 10 9 16 9 21 1 5 -8 13 -6 25 5 12 11 20 13 25 6 4 -7 14 -6
30 5 13 8 49 18 79 21 40 4 56 10 56 21 0 10 -7 13 -25 9 -16 -3 -24 0 -22 7
7 20 48 18 68 -3 10 -11 19 -25 19 -30 0 -16 33 0 62 31 14 15 32 28 39 28 7
0 -33 -46 -89 -103 -55 -56 -109 -112 -119 -124 -28 -34 -245 -81 -408 -88
-157 -7 -533 45 -660 91 -22 9 -56 20 -75 26 -39 11 -112 51 -151 82 -14 12
-41 33 -60 48 -41 31 -71 58 -121 104 -20 19 -42 34 -48 34 -5 0 -10 6 -10 13
0 6 -12 23 -25 36 -14 13 -25 27 -25 32 0 4 -11 20 -25 35 -14 15 -25 33 -25
40 0 8 -5 14 -10 14 -6 0 -14 8 -17 18 -4 9 -13 23 -20 30 -7 7 -13 22 -13 32
0 10 -4 22 -10 25 -5 3 -10 14 -10 23 0 13 5 12 20 -8 11 -14 20 -31 20 -38 0
-8 6 -12 13 -9 9 3 12 40 10 148 0 79 1 129 4 112 5 -38 23 -44 23 -8 0 13 5
35 11 49 l12 25 33 -26 c22 -16 34 -34 34 -49z"/>
</g>
</svg>
